<mxfile host="app.diagrams.net" modified="2023-10-12T11:34:55.718Z" agent="Mozilla/5.0 (Macintosh; Intel Mac OS X 10_15_7) AppleWebKit/605.1.15 (KHTML, like Gecko) Version/17.0 Safari/605.1.15" etag="5DF3-spO2n_JtIMoIlpS" version="22.0.4" type="device">
  <diagram name="Page-1" id="p50rXdhpppsO5LLiYBkp">
    <mxGraphModel dx="2293" dy="989" grid="1" gridSize="10" guides="1" tooltips="1" connect="1" arrows="1" fold="1" page="1" pageScale="1" pageWidth="827" pageHeight="1169" math="0" shadow="0">
      <root>
        <mxCell id="0" />
        <mxCell id="1" parent="0" />
        <mxCell id="mEktLnSrfiFI6syayyHF-15" value="" style="rounded=0;whiteSpace=wrap;html=1;fillColor=#f5f5f5;fontColor=#333333;strokeColor=#666666;" vertex="1" parent="1">
          <mxGeometry x="840" y="480" width="330" height="450" as="geometry" />
        </mxCell>
        <mxCell id="mVk74JgCXZxDBSlldJFi-118" value="" style="rounded=0;whiteSpace=wrap;html=1;shadow=0;glass=0;align=center;verticalAlign=middle;fontFamily=Helvetica;fontSize=12;textOpacity=50;fillColor=#fff2cc;strokeColor=#d6b656;" parent="1" vertex="1">
          <mxGeometry x="170" y="40" width="590" height="440" as="geometry" />
        </mxCell>
        <mxCell id="mVk74JgCXZxDBSlldJFi-6" value="" style="shape=trapezoid;perimeter=trapezoidPerimeter;whiteSpace=wrap;html=1;fixedSize=1;rotation=-90;fillColor=#f8cecc;strokeColor=#b85450;shadow=1;rounded=1;gradientColor=#EA6B66;" parent="1" vertex="1">
          <mxGeometry x="137.5" y="162.5" width="300" height="215" as="geometry" />
        </mxCell>
        <mxCell id="mVk74JgCXZxDBSlldJFi-116" value="" style="edgeStyle=orthogonalEdgeStyle;rounded=0;orthogonalLoop=1;jettySize=auto;html=1;" parent="1" source="mVk74JgCXZxDBSlldJFi-7" target="mVk74JgCXZxDBSlldJFi-115" edge="1">
          <mxGeometry relative="1" as="geometry" />
        </mxCell>
        <mxCell id="mVk74JgCXZxDBSlldJFi-7" value="" style="shape=trapezoid;perimeter=trapezoidPerimeter;whiteSpace=wrap;html=1;fixedSize=1;rotation=-90;fillColor=#fff2cc;strokeColor=#d6b656;rounded=1;shadow=1;gradientColor=#FFB570;gradientDirection=south;" parent="1" vertex="1">
          <mxGeometry x="317.5" y="582.5" width="300" height="215" as="geometry" />
        </mxCell>
        <mxCell id="mVk74JgCXZxDBSlldJFi-8" value="" style="shape=trapezoid;perimeter=trapezoidPerimeter;whiteSpace=wrap;html=1;fixedSize=1;rotation=90;fillColor=#d5e8d4;strokeColor=#82b366;shadow=1;rounded=1;gradientColor=#67AB9F;" parent="1" vertex="1">
          <mxGeometry x="481.25" y="161.25" width="300" height="215" as="geometry" />
        </mxCell>
        <mxCell id="mVk74JgCXZxDBSlldJFi-9" value="" style="shape=trapezoid;perimeter=trapezoidPerimeter;whiteSpace=wrap;html=1;fixedSize=1;rotation=-90;fillColor=#f8cecc;strokeColor=#b85450;rounded=1;shadow=1;gradientColor=#EA6B66;gradientDirection=south;" parent="1" vertex="1">
          <mxGeometry x="791.5" y="177.5" width="310" height="215" as="geometry" />
        </mxCell>
        <mxCell id="mVk74JgCXZxDBSlldJFi-84" style="edgeStyle=orthogonalEdgeStyle;rounded=0;orthogonalLoop=1;jettySize=auto;html=1;entryX=0;entryY=0.5;entryDx=0;entryDy=0;" parent="1" source="mVk74JgCXZxDBSlldJFi-25" target="mVk74JgCXZxDBSlldJFi-52" edge="1">
          <mxGeometry relative="1" as="geometry">
            <Array as="points">
              <mxPoint x="90" y="680" />
            </Array>
          </mxGeometry>
        </mxCell>
        <mxCell id="mVk74JgCXZxDBSlldJFi-25" value="&lt;font style=&quot;font-size: 30px;&quot;&gt;api calls&lt;/font&gt;" style="swimlane;fontStyle=0;childLayout=stackLayout;horizontal=1;startSize=30;horizontalStack=0;resizeParent=1;resizeParentMax=0;resizeLast=0;collapsible=1;marginBottom=0;whiteSpace=wrap;html=1;swimlaneFillColor=default;fillColor=default;fontColor=#333333;strokeColor=default;shadow=1;gradientColor=#B3B3B3;gradientDirection=radial;" parent="1" vertex="1">
          <mxGeometry x="-60" y="140" width="170" height="270" as="geometry">
            <mxRectangle x="-50" y="230" width="80" height="30" as="alternateBounds" />
          </mxGeometry>
        </mxCell>
        <mxCell id="mVk74JgCXZxDBSlldJFi-26" value="&lt;font style=&quot;font-size: 25px;&quot;&gt;Request method: GET&lt;/font&gt;" style="text;strokeColor=none;fillColor=none;align=left;verticalAlign=middle;spacingLeft=4;spacingRight=4;overflow=hidden;points=[[0,0.5],[1,0.5]];portConstraint=eastwest;rotatable=0;whiteSpace=wrap;html=1;" parent="mVk74JgCXZxDBSlldJFi-25" vertex="1">
          <mxGeometry y="30" width="170" height="60" as="geometry" />
        </mxCell>
        <mxCell id="mVk74JgCXZxDBSlldJFi-27" value="&lt;font style=&quot;font-size: 25px;&quot;&gt;User-Agent: Safari&lt;/font&gt;" style="text;strokeColor=none;fillColor=none;align=left;verticalAlign=middle;spacingLeft=4;spacingRight=4;overflow=hidden;points=[[0,0.5],[1,0.5]];portConstraint=eastwest;rotatable=0;whiteSpace=wrap;html=1;" parent="mVk74JgCXZxDBSlldJFi-25" vertex="1">
          <mxGeometry y="90" width="170" height="70" as="geometry" />
        </mxCell>
        <mxCell id="mVk74JgCXZxDBSlldJFi-28" value="&lt;font style=&quot;font-size: 25px;&quot;&gt;Server: Istio-envoy&lt;/font&gt;" style="text;strokeColor=none;fillColor=none;align=left;verticalAlign=middle;spacingLeft=4;spacingRight=4;overflow=hidden;points=[[0,0.5],[1,0.5]];portConstraint=eastwest;rotatable=0;whiteSpace=wrap;html=1;" parent="mVk74JgCXZxDBSlldJFi-25" vertex="1">
          <mxGeometry y="160" width="170" height="70" as="geometry" />
        </mxCell>
        <mxCell id="mVk74JgCXZxDBSlldJFi-29" value=".." style="text;strokeColor=none;fillColor=none;align=left;verticalAlign=middle;spacingLeft=4;spacingRight=4;overflow=hidden;points=[[0,0.5],[1,0.5]];portConstraint=eastwest;rotatable=0;whiteSpace=wrap;html=1;" parent="mVk74JgCXZxDBSlldJFi-25" vertex="1">
          <mxGeometry y="230" width="170" height="40" as="geometry" />
        </mxCell>
        <mxCell id="mVk74JgCXZxDBSlldJFi-31" value="" style="rounded=1;whiteSpace=wrap;html=1;fillColor=#ffe6cc;strokeColor=#d79b00;gradientColor=#FFB570;gradientDirection=north;glass=1;shadow=1;" parent="1" vertex="1">
          <mxGeometry x="200" y="162.5" width="20" height="220" as="geometry" />
        </mxCell>
        <mxCell id="mVk74JgCXZxDBSlldJFi-42" value="" style="rounded=1;whiteSpace=wrap;html=1;fillColor=#ffe6cc;strokeColor=#d79b00;gradientColor=#FFB570;gradientDirection=north;glass=1;shadow=1;" parent="1" vertex="1">
          <mxGeometry x="250" y="165" width="20" height="220" as="geometry" />
        </mxCell>
        <mxCell id="mVk74JgCXZxDBSlldJFi-61" value="" style="edgeStyle=orthogonalEdgeStyle;rounded=0;orthogonalLoop=1;jettySize=auto;html=1;" parent="1" source="mVk74JgCXZxDBSlldJFi-44" target="mVk74JgCXZxDBSlldJFi-60" edge="1">
          <mxGeometry relative="1" as="geometry" />
        </mxCell>
        <mxCell id="mVk74JgCXZxDBSlldJFi-44" value="" style="rounded=1;whiteSpace=wrap;html=1;fillColor=#dae8fc;strokeColor=#6c8ebf;glass=1;shadow=1;gradientColor=#7EA6E0;" parent="1" vertex="1">
          <mxGeometry x="354" y="165" width="20" height="105" as="geometry" />
        </mxCell>
        <mxCell id="mVk74JgCXZxDBSlldJFi-62" value="" style="edgeStyle=orthogonalEdgeStyle;rounded=0;orthogonalLoop=1;jettySize=auto;html=1;" parent="1" source="mVk74JgCXZxDBSlldJFi-45" target="mVk74JgCXZxDBSlldJFi-60" edge="1">
          <mxGeometry relative="1" as="geometry" />
        </mxCell>
        <mxCell id="mVk74JgCXZxDBSlldJFi-45" value="" style="rounded=1;whiteSpace=wrap;html=1;fillColor=#dae8fc;strokeColor=#6c8ebf;glass=1;shadow=1;gradientColor=#7EA6E0;" parent="1" vertex="1">
          <mxGeometry x="354" y="282.5" width="20" height="105" as="geometry" />
        </mxCell>
        <mxCell id="mVk74JgCXZxDBSlldJFi-46" value="" style="rounded=1;whiteSpace=wrap;html=1;fillColor=#ffe6cc;strokeColor=#d79b00;gradientColor=#FFB570;gradientDirection=north;glass=1;shadow=1;" parent="1" vertex="1">
          <mxGeometry x="690" y="162.5" width="20" height="220" as="geometry" />
        </mxCell>
        <mxCell id="mVk74JgCXZxDBSlldJFi-71" style="edgeStyle=orthogonalEdgeStyle;rounded=0;orthogonalLoop=1;jettySize=auto;html=1;exitX=1;exitY=0.5;exitDx=0;exitDy=0;entryX=0;entryY=0.5;entryDx=0;entryDy=0;" parent="1" source="mVk74JgCXZxDBSlldJFi-48" target="mVk74JgCXZxDBSlldJFi-46" edge="1">
          <mxGeometry relative="1" as="geometry" />
        </mxCell>
        <mxCell id="mVk74JgCXZxDBSlldJFi-48" value="" style="rounded=1;whiteSpace=wrap;html=1;fillColor=#ffe6cc;strokeColor=#d79b00;gradientColor=#FFB570;gradientDirection=north;glass=1;shadow=1;" parent="1" vertex="1">
          <mxGeometry x="640" y="162.5" width="20" height="220" as="geometry" />
        </mxCell>
        <mxCell id="mVk74JgCXZxDBSlldJFi-70" value="" style="edgeStyle=orthogonalEdgeStyle;rounded=0;orthogonalLoop=1;jettySize=auto;html=1;" parent="1" source="mVk74JgCXZxDBSlldJFi-49" target="mVk74JgCXZxDBSlldJFi-48" edge="1">
          <mxGeometry relative="1" as="geometry" />
        </mxCell>
        <mxCell id="mVk74JgCXZxDBSlldJFi-49" value="" style="rounded=1;whiteSpace=wrap;html=1;fillColor=#ffe6cc;strokeColor=#d79b00;gradientColor=#FFB570;gradientDirection=north;glass=1;shadow=1;" parent="1" vertex="1">
          <mxGeometry x="590" y="162.5" width="20" height="220" as="geometry" />
        </mxCell>
        <mxCell id="mVk74JgCXZxDBSlldJFi-109" style="edgeStyle=orthogonalEdgeStyle;rounded=0;orthogonalLoop=1;jettySize=auto;html=1;exitX=1;exitY=0.5;exitDx=0;exitDy=0;entryX=0;entryY=0.5;entryDx=0;entryDy=0;" parent="1" source="mVk74JgCXZxDBSlldJFi-52" target="mVk74JgCXZxDBSlldJFi-53" edge="1">
          <mxGeometry relative="1" as="geometry" />
        </mxCell>
        <mxCell id="mVk74JgCXZxDBSlldJFi-52" value="" style="rounded=1;whiteSpace=wrap;html=1;fillColor=#ffe6cc;strokeColor=#d79b00;glass=1;shadow=1;gradientColor=#FFB570;gradientDirection=north;" parent="1" vertex="1">
          <mxGeometry x="404" y="570" width="20" height="220" as="geometry" />
        </mxCell>
        <mxCell id="mVk74JgCXZxDBSlldJFi-110" style="edgeStyle=orthogonalEdgeStyle;rounded=0;orthogonalLoop=1;jettySize=auto;html=1;exitX=1;exitY=0.5;exitDx=0;exitDy=0;entryX=0;entryY=0.5;entryDx=0;entryDy=0;" parent="1" source="mVk74JgCXZxDBSlldJFi-53" target="mVk74JgCXZxDBSlldJFi-54" edge="1">
          <mxGeometry relative="1" as="geometry" />
        </mxCell>
        <mxCell id="mVk74JgCXZxDBSlldJFi-53" value="" style="rounded=1;whiteSpace=wrap;html=1;fillColor=#ffe6cc;strokeColor=#d79b00;glass=1;shadow=1;gradientColor=#FFB570;gradientDirection=north;" parent="1" vertex="1">
          <mxGeometry x="440" y="570" width="20" height="220" as="geometry" />
        </mxCell>
        <mxCell id="mVk74JgCXZxDBSlldJFi-111" style="rounded=0;orthogonalLoop=1;jettySize=auto;html=1;exitX=1;exitY=0.25;exitDx=0;exitDy=0;entryX=0;entryY=0.5;entryDx=0;entryDy=0;" parent="1" source="mVk74JgCXZxDBSlldJFi-54" target="mVk74JgCXZxDBSlldJFi-55" edge="1">
          <mxGeometry relative="1" as="geometry" />
        </mxCell>
        <mxCell id="mVk74JgCXZxDBSlldJFi-112" style="rounded=0;orthogonalLoop=1;jettySize=auto;html=1;exitX=1;exitY=0.75;exitDx=0;exitDy=0;entryX=0;entryY=0.5;entryDx=0;entryDy=0;" parent="1" source="mVk74JgCXZxDBSlldJFi-54" target="mVk74JgCXZxDBSlldJFi-56" edge="1">
          <mxGeometry relative="1" as="geometry" />
        </mxCell>
        <mxCell id="mVk74JgCXZxDBSlldJFi-54" value="" style="rounded=1;whiteSpace=wrap;html=1;fillColor=#ffe6cc;strokeColor=#d79b00;glass=1;shadow=1;gradientColor=#FFB570;gradientDirection=north;" parent="1" vertex="1">
          <mxGeometry x="481.25" y="570" width="20" height="220" as="geometry" />
        </mxCell>
        <mxCell id="mVk74JgCXZxDBSlldJFi-55" value="" style="rounded=1;whiteSpace=wrap;html=1;fillColor=#dae8fc;strokeColor=#6c8ebf;glass=1;shadow=1;gradientColor=#7EA6E0;" parent="1" vertex="1">
          <mxGeometry x="525" y="570" width="20" height="105" as="geometry" />
        </mxCell>
        <mxCell id="mVk74JgCXZxDBSlldJFi-56" value="" style="rounded=1;whiteSpace=wrap;html=1;fillColor=#f8cecc;strokeColor=#b85450;glass=1;shadow=1;gradientColor=#F19C99;" parent="1" vertex="1">
          <mxGeometry x="525" y="685" width="20" height="105" as="geometry" />
        </mxCell>
        <mxCell id="mVk74JgCXZxDBSlldJFi-72" style="edgeStyle=orthogonalEdgeStyle;rounded=0;orthogonalLoop=1;jettySize=auto;html=1;exitX=1;exitY=0.5;exitDx=0;exitDy=0;" parent="1" source="mVk74JgCXZxDBSlldJFi-57" target="mVk74JgCXZxDBSlldJFi-49" edge="1">
          <mxGeometry relative="1" as="geometry" />
        </mxCell>
        <mxCell id="mVk74JgCXZxDBSlldJFi-57" value="" style="rounded=1;whiteSpace=wrap;html=1;fillColor=#dae8fc;strokeColor=#6c8ebf;glass=1;shadow=1;gradientColor=#7EA6E0;" parent="1" vertex="1">
          <mxGeometry x="545" y="162.5" width="20" height="220" as="geometry" />
        </mxCell>
        <mxCell id="mVk74JgCXZxDBSlldJFi-58" value="&lt;font style=&quot;font-size: 30px;&quot;&gt;μ&lt;/font&gt;" style="rounded=1;whiteSpace=wrap;html=1;fillColor=#e1d5e7;strokeColor=#9673a6;gradientColor=#A680B8;glass=1;shadow=1;gradientDirection=radial;" parent="1" vertex="1">
          <mxGeometry x="410" y="180" width="50" height="50" as="geometry" />
        </mxCell>
        <mxCell id="mVk74JgCXZxDBSlldJFi-59" value="&lt;font style=&quot;font-size: 30px;&quot;&gt;σ&lt;/font&gt;" style="rounded=1;whiteSpace=wrap;html=1;fillColor=#e1d5e7;strokeColor=#9673a6;gradientColor=#A680B8;glass=1;shadow=1;gradientDirection=radial;" parent="1" vertex="1">
          <mxGeometry x="410" y="307.5" width="50" height="50" as="geometry" />
        </mxCell>
        <mxCell id="mVk74JgCXZxDBSlldJFi-73" value="" style="edgeStyle=orthogonalEdgeStyle;rounded=0;orthogonalLoop=1;jettySize=auto;html=1;" parent="1" source="mVk74JgCXZxDBSlldJFi-60" target="mVk74JgCXZxDBSlldJFi-57" edge="1">
          <mxGeometry relative="1" as="geometry" />
        </mxCell>
        <mxCell id="mVk74JgCXZxDBSlldJFi-60" value="&lt;font style=&quot;font-size: 30px;&quot;&gt;z&lt;/font&gt;" style="rounded=1;whiteSpace=wrap;html=1;fillColor=default;strokeColor=default;fontColor=#333333;shadow=1;gradientColor=#B3B3B3;gradientDirection=radial;" parent="1" vertex="1">
          <mxGeometry x="460" y="247.5" width="50" height="50" as="geometry" />
        </mxCell>
        <mxCell id="mVk74JgCXZxDBSlldJFi-74" value="" style="edgeStyle=orthogonalEdgeStyle;rounded=0;orthogonalLoop=1;jettySize=auto;html=1;" parent="1" source="mVk74JgCXZxDBSlldJFi-42" target="mVk74JgCXZxDBSlldJFi-43" edge="1">
          <mxGeometry relative="1" as="geometry">
            <mxPoint x="240" y="275" as="sourcePoint" />
            <mxPoint x="340" y="333" as="targetPoint" />
          </mxGeometry>
        </mxCell>
        <mxCell id="mVk74JgCXZxDBSlldJFi-78" style="rounded=0;orthogonalLoop=1;jettySize=auto;html=1;exitX=1;exitY=0.25;exitDx=0;exitDy=0;entryX=0;entryY=0.5;entryDx=0;entryDy=0;" parent="1" source="mVk74JgCXZxDBSlldJFi-43" target="mVk74JgCXZxDBSlldJFi-44" edge="1">
          <mxGeometry relative="1" as="geometry" />
        </mxCell>
        <mxCell id="mVk74JgCXZxDBSlldJFi-81" style="rounded=0;orthogonalLoop=1;jettySize=auto;html=1;entryX=0;entryY=0.5;entryDx=0;entryDy=0;exitX=1;exitY=0.75;exitDx=0;exitDy=0;" parent="1" source="mVk74JgCXZxDBSlldJFi-43" target="mVk74JgCXZxDBSlldJFi-45" edge="1">
          <mxGeometry relative="1" as="geometry">
            <mxPoint x="354" y="330" as="sourcePoint" />
          </mxGeometry>
        </mxCell>
        <mxCell id="mVk74JgCXZxDBSlldJFi-43" value="" style="rounded=1;whiteSpace=wrap;html=1;fillColor=#ffe6cc;strokeColor=#d79b00;gradientColor=#FFB570;gradientDirection=north;glass=1;shadow=1;" parent="1" vertex="1">
          <mxGeometry x="300" y="165" width="20" height="220" as="geometry" />
        </mxCell>
        <mxCell id="mVk74JgCXZxDBSlldJFi-108" value="" style="edgeStyle=orthogonalEdgeStyle;rounded=0;orthogonalLoop=1;jettySize=auto;html=1;" parent="1" target="mVk74JgCXZxDBSlldJFi-88" edge="1">
          <mxGeometry relative="1" as="geometry">
            <mxPoint x="840" y="275" as="sourcePoint" />
          </mxGeometry>
        </mxCell>
        <mxCell id="mVk74JgCXZxDBSlldJFi-128" value="" style="edgeStyle=orthogonalEdgeStyle;rounded=0;orthogonalLoop=1;jettySize=auto;html=1;fontFamily=Helvetica;fontSize=12;fontColor=default;" parent="1" source="mVk74JgCXZxDBSlldJFi-85" target="mVk74JgCXZxDBSlldJFi-87" edge="1">
          <mxGeometry relative="1" as="geometry" />
        </mxCell>
        <mxCell id="mEktLnSrfiFI6syayyHF-17" style="edgeStyle=orthogonalEdgeStyle;rounded=0;orthogonalLoop=1;jettySize=auto;html=1;exitX=0.5;exitY=1;exitDx=0;exitDy=0;" edge="1" parent="1" source="mVk74JgCXZxDBSlldJFi-85">
          <mxGeometry relative="1" as="geometry">
            <mxPoint x="400" y="680" as="targetPoint" />
            <Array as="points">
              <mxPoint x="800" y="490" />
              <mxPoint x="290" y="490" />
              <mxPoint x="290" y="680" />
            </Array>
          </mxGeometry>
        </mxCell>
        <mxCell id="mVk74JgCXZxDBSlldJFi-85" value="&lt;font style=&quot;font-size: 30px;&quot;&gt;x&#39;&lt;/font&gt;" style="rounded=1;whiteSpace=wrap;html=1;fillColor=default;fontColor=#333333;strokeColor=default;shadow=1;gradientColor=#B3B3B3;gradientDirection=radial;" parent="1" vertex="1">
          <mxGeometry x="775" y="250" width="50" height="50" as="geometry" />
        </mxCell>
        <mxCell id="mVk74JgCXZxDBSlldJFi-86" value="" style="edgeStyle=orthogonalEdgeStyle;rounded=0;orthogonalLoop=1;jettySize=auto;html=1;" parent="1" source="mVk74JgCXZxDBSlldJFi-87" target="mVk74JgCXZxDBSlldJFi-98" edge="1">
          <mxGeometry relative="1" as="geometry" />
        </mxCell>
        <mxCell id="mVk74JgCXZxDBSlldJFi-87" value="" style="rounded=1;whiteSpace=wrap;html=1;fillColor=#ffe6cc;strokeColor=#d79b00;gradientColor=#FFB570;gradientDirection=north;glass=1;shadow=1;" parent="1" vertex="1">
          <mxGeometry x="860" y="165" width="20" height="220" as="geometry" />
        </mxCell>
        <mxCell id="mEktLnSrfiFI6syayyHF-20" value="" style="edgeStyle=orthogonalEdgeStyle;rounded=0;orthogonalLoop=1;jettySize=auto;html=1;" edge="1" parent="1" source="mVk74JgCXZxDBSlldJFi-88" target="mVk74JgCXZxDBSlldJFi-122">
          <mxGeometry relative="1" as="geometry" />
        </mxCell>
        <mxCell id="mVk74JgCXZxDBSlldJFi-88" value="" style="rounded=1;whiteSpace=wrap;html=1;fillColor=#ffe6cc;strokeColor=#d79b00;gradientColor=#FFB570;gradientDirection=north;glass=1;shadow=1;" parent="1" vertex="1">
          <mxGeometry x="900" y="165" width="20" height="220" as="geometry" />
        </mxCell>
        <mxCell id="mVk74JgCXZxDBSlldJFi-100" style="edgeStyle=orthogonalEdgeStyle;rounded=0;orthogonalLoop=1;jettySize=auto;html=1;exitX=1;exitY=0.5;exitDx=0;exitDy=0;entryX=0;entryY=0.5;entryDx=0;entryDy=0;" parent="1" source="mVk74JgCXZxDBSlldJFi-90" target="mVk74JgCXZxDBSlldJFi-93" edge="1">
          <mxGeometry relative="1" as="geometry" />
        </mxCell>
        <mxCell id="mVk74JgCXZxDBSlldJFi-90" value="" style="rounded=1;whiteSpace=wrap;html=1;fillColor=#dae8fc;strokeColor=#6c8ebf;glass=1;shadow=1;gradientColor=#7EA6E0;" parent="1" vertex="1">
          <mxGeometry x="1000" y="165" width="20" height="105" as="geometry" />
        </mxCell>
        <mxCell id="mEktLnSrfiFI6syayyHF-14" style="edgeStyle=orthogonalEdgeStyle;rounded=0;orthogonalLoop=1;jettySize=auto;html=1;exitX=1;exitY=0.5;exitDx=0;exitDy=0;" edge="1" parent="1" source="mVk74JgCXZxDBSlldJFi-92" target="mVk74JgCXZxDBSlldJFi-94">
          <mxGeometry relative="1" as="geometry" />
        </mxCell>
        <mxCell id="mVk74JgCXZxDBSlldJFi-92" value="" style="rounded=1;whiteSpace=wrap;html=1;fillColor=#dae8fc;strokeColor=#6c8ebf;glass=1;shadow=1;gradientColor=#7EA6E0;" parent="1" vertex="1">
          <mxGeometry x="1000" y="282.5" width="20" height="105" as="geometry" />
        </mxCell>
        <mxCell id="mVk74JgCXZxDBSlldJFi-103" value="" style="edgeStyle=orthogonalEdgeStyle;rounded=0;orthogonalLoop=1;jettySize=auto;html=1;" parent="1" source="mVk74JgCXZxDBSlldJFi-93" target="mVk74JgCXZxDBSlldJFi-99" edge="1">
          <mxGeometry relative="1" as="geometry" />
        </mxCell>
        <mxCell id="mEktLnSrfiFI6syayyHF-13" value="" style="edgeStyle=orthogonalEdgeStyle;rounded=0;orthogonalLoop=1;jettySize=auto;html=1;" edge="1" parent="1" source="mVk74JgCXZxDBSlldJFi-93" target="mVk74JgCXZxDBSlldJFi-99">
          <mxGeometry relative="1" as="geometry" />
        </mxCell>
        <mxCell id="mVk74JgCXZxDBSlldJFi-93" value="&lt;font style=&quot;font-size: 30px;&quot;&gt;μ&#39;&lt;/font&gt;" style="rounded=1;whiteSpace=wrap;html=1;fillColor=#e1d5e7;strokeColor=#9673a6;gradientColor=#A680B8;glass=1;shadow=1;gradientDirection=radial;" parent="1" vertex="1">
          <mxGeometry x="1070" y="192.5" width="50" height="50" as="geometry" />
        </mxCell>
        <mxCell id="mVk74JgCXZxDBSlldJFi-102" value="" style="edgeStyle=orthogonalEdgeStyle;rounded=0;orthogonalLoop=1;jettySize=auto;html=1;" parent="1" source="mVk74JgCXZxDBSlldJFi-94" target="mVk74JgCXZxDBSlldJFi-99" edge="1">
          <mxGeometry relative="1" as="geometry" />
        </mxCell>
        <mxCell id="mVk74JgCXZxDBSlldJFi-94" value="&lt;font style=&quot;font-size: 30px;&quot;&gt;σ&#39;&lt;/font&gt;" style="rounded=1;whiteSpace=wrap;html=1;fillColor=#e1d5e7;strokeColor=#9673a6;gradientColor=#A680B8;glass=1;shadow=1;gradientDirection=radial;" parent="1" vertex="1">
          <mxGeometry x="1070" y="310" width="50" height="50" as="geometry" />
        </mxCell>
        <mxCell id="mVk74JgCXZxDBSlldJFi-95" value="" style="edgeStyle=orthogonalEdgeStyle;rounded=0;orthogonalLoop=1;jettySize=auto;html=1;" parent="1" source="mVk74JgCXZxDBSlldJFi-88" target="mVk74JgCXZxDBSlldJFi-98" edge="1">
          <mxGeometry relative="1" as="geometry">
            <mxPoint x="1000" y="275" as="sourcePoint" />
            <mxPoint x="1100" y="333" as="targetPoint" />
          </mxGeometry>
        </mxCell>
        <mxCell id="mVk74JgCXZxDBSlldJFi-96" style="rounded=0;orthogonalLoop=1;jettySize=auto;html=1;exitX=1;exitY=0.25;exitDx=0;exitDy=0;entryX=0;entryY=0.5;entryDx=0;entryDy=0;" parent="1" source="mVk74JgCXZxDBSlldJFi-98" target="mVk74JgCXZxDBSlldJFi-90" edge="1">
          <mxGeometry relative="1" as="geometry" />
        </mxCell>
        <mxCell id="mVk74JgCXZxDBSlldJFi-97" style="rounded=0;orthogonalLoop=1;jettySize=auto;html=1;entryX=0;entryY=0.5;entryDx=0;entryDy=0;exitX=1;exitY=0.75;exitDx=0;exitDy=0;" parent="1" source="mVk74JgCXZxDBSlldJFi-98" target="mVk74JgCXZxDBSlldJFi-92" edge="1">
          <mxGeometry relative="1" as="geometry">
            <mxPoint x="1114" y="330" as="sourcePoint" />
          </mxGeometry>
        </mxCell>
        <mxCell id="mVk74JgCXZxDBSlldJFi-98" value="" style="rounded=1;whiteSpace=wrap;html=1;fillColor=#ffe6cc;strokeColor=#d79b00;gradientColor=#FFB570;gradientDirection=north;glass=1;shadow=1;" parent="1" vertex="1">
          <mxGeometry x="950" y="162.5" width="20" height="220" as="geometry" />
        </mxCell>
        <mxCell id="mVk74JgCXZxDBSlldJFi-99" value="&lt;font style=&quot;font-size: 30px;&quot;&gt;z&#39;&lt;/font&gt;" style="rounded=1;whiteSpace=wrap;html=1;fillColor=default;strokeColor=default;fontColor=#333333;shadow=1;gradientColor=#B3B3B3;gradientDirection=radial;" parent="1" vertex="1">
          <mxGeometry x="1130" y="250" width="50" height="50" as="geometry" />
        </mxCell>
        <mxCell id="mVk74JgCXZxDBSlldJFi-115" value="&lt;font style=&quot;font-size: 30px;&quot;&gt;real / fake&lt;/font&gt;" style="ellipse;whiteSpace=wrap;html=1;fillColor=default;strokeColor=default;fontColor=#333333;shadow=1;perimeterSpacing=1;gradientColor=#B3B3B3;gradientDirection=radial;" parent="1" vertex="1">
          <mxGeometry x="630" y="642.5" width="100" height="95" as="geometry" />
        </mxCell>
        <mxCell id="mVk74JgCXZxDBSlldJFi-120" value="&lt;font style=&quot;font-size: 30px;&quot;&gt;E(z|x)&lt;/font&gt;" style="text;html=1;align=center;verticalAlign=middle;resizable=0;points=[];autosize=1;strokeColor=none;fillColor=none;fontSize=12;fontFamily=Helvetica;fontColor=default;" parent="1" vertex="1">
          <mxGeometry x="220" y="70" width="100" height="50" as="geometry" />
        </mxCell>
        <mxCell id="mVk74JgCXZxDBSlldJFi-121" value="&lt;font style=&quot;font-size: 30px;&quot;&gt;D(x|z)&lt;/font&gt;" style="text;html=1;align=center;verticalAlign=middle;resizable=0;points=[];autosize=1;strokeColor=none;fillColor=none;fontSize=12;fontFamily=Helvetica;fontColor=default;" parent="1" vertex="1">
          <mxGeometry x="570" y="70" width="100" height="50" as="geometry" />
        </mxCell>
        <mxCell id="mVk74JgCXZxDBSlldJFi-122" value="&lt;font style=&quot;font-size: 30px;&quot;&gt;E2(z|x)&lt;/font&gt;" style="text;html=1;align=center;verticalAlign=middle;resizable=0;points=[];autosize=1;strokeColor=none;fillColor=none;fontSize=12;fontFamily=Helvetica;fontColor=default;" parent="1" vertex="1">
          <mxGeometry x="890" y="70" width="120" height="50" as="geometry" />
        </mxCell>
        <mxCell id="mVk74JgCXZxDBSlldJFi-123" value="&lt;font style=&quot;font-size: 30px;&quot;&gt;Ds(x/x&#39;)&lt;/font&gt;" style="text;html=1;align=center;verticalAlign=middle;resizable=0;points=[];autosize=1;strokeColor=none;fillColor=none;fontSize=12;fontFamily=Helvetica;fontColor=default;" parent="1" vertex="1">
          <mxGeometry x="420" y="500" width="120" height="50" as="geometry" />
        </mxCell>
        <mxCell id="mVk74JgCXZxDBSlldJFi-124" value="&lt;font style=&quot;font-size: 30px;&quot;&gt;G(x)&lt;/font&gt;" style="text;html=1;align=center;verticalAlign=middle;resizable=0;points=[];autosize=1;strokeColor=none;fillColor=none;fontSize=12;fontFamily=Helvetica;fontColor=default;" parent="1" vertex="1">
          <mxGeometry x="167.5" y="40" width="80" height="50" as="geometry" />
        </mxCell>
        <mxCell id="mEktLnSrfiFI6syayyHF-1" value="&lt;font style=&quot;font-size: 30px;&quot;&gt;f&lt;/font&gt;" style="shape=tape;whiteSpace=wrap;html=1;gradientColor=#4D4D4D;shadow=1;strokeColor=#FFFFFF;" vertex="1" parent="1">
          <mxGeometry x="625" y="775" width="85" height="70" as="geometry" />
        </mxCell>
        <mxCell id="mEktLnSrfiFI6syayyHF-2" style="edgeStyle=orthogonalEdgeStyle;rounded=0;orthogonalLoop=1;jettySize=auto;html=1;exitX=0.5;exitY=1;exitDx=0;exitDy=0;entryX=0;entryY=0.5;entryDx=0;entryDy=0;entryPerimeter=0;" edge="1" parent="1" source="mVk74JgCXZxDBSlldJFi-54" target="mEktLnSrfiFI6syayyHF-1">
          <mxGeometry relative="1" as="geometry" />
        </mxCell>
        <mxCell id="mEktLnSrfiFI6syayyHF-5" value="&lt;font style=&quot;font-size: 30px;&quot;&gt;Conv layer&lt;br style=&quot;border-color: var(--border-color);&quot;&gt;&lt;span style=&quot;border-color: var(--border-color);&quot;&gt;Batch Norm&lt;/span&gt;&lt;br style=&quot;border-color: var(--border-color);&quot;&gt;&lt;span style=&quot;border-color: var(--border-color);&quot;&gt;Leaky ReLU&lt;/span&gt;&lt;/font&gt;" style="rounded=1;whiteSpace=wrap;html=1;fillColor=#ffe6cc;strokeColor=#d79b00;gradientColor=#FFB570;gradientDirection=north;glass=1;shadow=1;rotation=0;" vertex="1" parent="1">
          <mxGeometry x="865" y="530" width="285" height="110" as="geometry" />
        </mxCell>
        <mxCell id="mEktLnSrfiFI6syayyHF-6" value="&lt;font style=&quot;font-size: 30px;&quot;&gt;fully connected layer /&lt;br&gt;Linear&lt;br&gt;&lt;/font&gt;" style="rounded=1;whiteSpace=wrap;html=1;fillColor=#dae8fc;strokeColor=#6c8ebf;glass=1;shadow=1;gradientColor=#7EA6E0;" vertex="1" parent="1">
          <mxGeometry x="865" y="670" width="280" height="105" as="geometry" />
        </mxCell>
        <mxCell id="mEktLnSrfiFI6syayyHF-8" value="&lt;font style=&quot;font-size: 30px;&quot;&gt;Sigmoid&lt;/font&gt;" style="rounded=1;whiteSpace=wrap;html=1;fillColor=#f8cecc;strokeColor=#b85450;glass=1;shadow=1;gradientColor=#F19C99;" vertex="1" parent="1">
          <mxGeometry x="865" y="810" width="290" height="105" as="geometry" />
        </mxCell>
        <mxCell id="mEktLnSrfiFI6syayyHF-18" value="&lt;font style=&quot;font-size: 30px;&quot;&gt;Legend&lt;/font&gt;" style="text;html=1;align=center;verticalAlign=middle;resizable=0;points=[];autosize=1;strokeColor=none;fillColor=none;" vertex="1" parent="1">
          <mxGeometry x="940" y="480" width="120" height="50" as="geometry" />
        </mxCell>
        <mxCell id="mEktLnSrfiFI6syayyHF-22" style="edgeStyle=orthogonalEdgeStyle;rounded=0;orthogonalLoop=1;jettySize=auto;html=1;exitX=1;exitY=0.5;exitDx=0;exitDy=0;entryX=0;entryY=0.5;entryDx=0;entryDy=0;" edge="1" parent="1" source="mVk74JgCXZxDBSlldJFi-27" target="mVk74JgCXZxDBSlldJFi-31">
          <mxGeometry relative="1" as="geometry" />
        </mxCell>
      </root>
    </mxGraphModel>
  </diagram>
</mxfile>
